<?xml version="1.0" standalone="no"?>
<!DOCTYPE svg PUBLIC "-//W3C//DTD SVG 20010904//EN"
 "http://www.w3.org/TR/2001/REC-SVG-20010904/DTD/svg10.dtd">
<svg version="1.0" xmlns="http://www.w3.org/2000/svg"
 width="400.000000pt" height="392.000000pt" viewBox="0 0 400.000000 392.000000"
 preserveAspectRatio="xMidYMid meet">
<metadata>
Created by potrace 1.15, written by Peter Selinger 2001-2017
</metadata>
<g transform="translate(0.000000,392.000000) scale(0.100000,-0.100000)"
fill="#000000" stroke="none">
<path d="M1700 3599 c-106 -8 -216 -36 -387 -97 -99 -36 -299 -144 -350 -189
-20 -18 -41 -33 -46 -33 -16 0 -276 -256 -277 -273 0 -5 -16 -27 -36 -50 -60
-70 -150 -240 -203 -387 -57 -154 -78 -263 -86 -425 -16 -353 33 -561 212
-900 60 -115 190 -266 340 -396 114 -100 317 -219 468 -276 53 -19 250 -68
345 -84 95 -17 352 -16 450 0 152 26 342 81 435 126 52 25 97 45 100 45 13 0
233 151 271 185 21 19 39 35 40 35 1 0 0 -9 -3 -19 -7 -29 15 -87 40 -104 12
-8 45 -36 72 -62 64 -60 115 -106 196 -176 35 -31 118 -105 184 -164 66 -60
134 -117 150 -127 41 -25 95 -23 136 5 32 21 34 27 37 85 3 70 13 56 -117 172
-34 30 -75 66 -90 80 -371 337 -467 411 -510 395 -9 -3 5 16 30 42 51 54 159
197 159 211 0 5 14 29 32 53 41 56 130 273 156 380 57 234 57 556 0 784 -45
180 -163 426 -258 535 -16 19 -30 39 -30 43 0 8 -43 54 -128 139 -91 91 -132
128 -142 128 -7 0 -31 17 -55 38 -23 20 -60 46 -81 57 -22 11 -65 35 -97 53
-32 19 -101 49 -153 68 -53 18 -100 36 -105 40 -5 3 -49 16 -97 30 -138 39
-364 51 -602 33z m405 -260 c82 -13 279 -65 315 -83 162 -82 202 -105 246
-138 28 -21 54 -38 57 -38 7 0 23 -15 136 -125 46 -44 87 -89 93 -100 6 -11
30 -45 54 -75 40 -51 154 -266 154 -290 0 -6 11 -46 25 -88 106 -331 58 -705
-133 -1027 -19 -33 -50 -77 -69 -98 -18 -20 -33 -41 -33 -47 0 -9 -130 -141
-191 -194 -40 -34 -262 -176 -275 -176 -6 0 -47 -16 -93 -35 -154 -64 -292
-88 -491 -88 -202 0 -390 38 -522 104 -21 11 -43 19 -49 19 -22 0 -219 123
-278 173 -174 150 -250 245 -348 439 -104 203 -155 463 -133 674 10 94 53 290
80 359 26 68 116 233 152 278 21 27 38 53 38 57 0 12 231 240 243 240 6 0 29
16 52 35 40 32 242 138 310 163 69 24 246 63 330 71 99 10 222 6 330 -10z"/>
<path d="M966 2836 c-57 -21 -86 -46 -123 -101 -58 -87 -64 -176 -21 -277 28
-65 608 -640 675 -669 139 -59 303 -15 371 100 25 42 27 55 27 146 0 74 -4
108 -17 130 -24 45 -607 624 -666 663 -33 22 -195 27 -246 8z m186 -99 c15 -7
92 -76 172 -154 l145 -143 -126 -125 c-108 -107 -128 -123 -141 -113 -53 42
-262 261 -281 294 -52 87 -8 216 84 246 34 10 118 8 147 -5z"/>
<path d="M2432 2665 c-44 -32 -82 -95 -82 -137 0 -47 25 -105 51 -119 17 -9
15 -15 -29 -77 -26 -37 -56 -84 -67 -105 -11 -21 -23 -41 -27 -43 -4 -3 -37
16 -73 41 -73 50 -81 52 -113 29 -32 -22 -28 -57 12 -89 34 -27 34 -27 17 -58
-9 -18 -19 -34 -22 -37 -11 -10 -89 -129 -89 -137 0 -4 -17 -31 -38 -58 -21
-28 -47 -66 -57 -85 -11 -19 -41 -65 -67 -102 -27 -38 -48 -72 -48 -77 0 -5
-15 -30 -34 -54 -49 -64 -66 -101 -73 -155 -9 -79 11 -130 76 -192 l58 -56
-49 -74 c-26 -41 -57 -88 -68 -105 -14 -20 -20 -43 -18 -70 3 -39 4 -40 43
-40 29 0 42 5 50 20 6 11 31 52 56 90 25 39 53 82 62 96 l16 27 57 -29 c63
-32 124 -37 185 -15 46 16 122 87 146 135 10 20 63 104 117 186 112 171 190
290 230 353 25 39 30 43 54 36 46 -13 94 -10 105 7 16 25 0 69 -31 82 -38 17
-102 60 -102 70 0 7 32 58 105 165 31 45 39 51 55 42 10 -5 38 -10 61 -10 76
0 149 77 149 158 0 56 -22 97 -63 118 -17 9 -34 20 -37 24 -3 5 -43 32 -90 60
-47 29 -106 68 -131 86 -26 19 -50 34 -54 34 -4 0 -30 17 -58 37 -41 30 -61
38 -106 41 -41 2 -62 -1 -79 -13z m213 -176 c72 -47 144 -94 161 -105 86 -52
144 -95 144 -104 0 -6 -11 -22 -25 -36 -28 -28 -28 -28 -137 44 -31 20 -76 50
-100 65 -202 133 -228 152 -228 169 0 19 36 61 48 56 4 -2 66 -42 137 -89z
m-59 -201 c23 -13 64 -38 90 -57 l49 -34 -63 -96 c-35 -53 -67 -102 -72 -110
-6 -12 -17 -7 -56 21 -27 19 -62 43 -79 51 -16 9 -43 27 -60 40 l-29 25 27 35
c15 20 27 39 27 43 0 3 21 35 46 71 42 58 48 63 62 49 10 -8 36 -25 58 -38z
m-256 -272 c41 -27 101 -67 132 -88 31 -21 75 -49 97 -61 l41 -23 -85 -128
c-47 -71 -85 -131 -85 -133 0 -3 -47 -76 -105 -163 -58 -86 -105 -160 -105
-165 0 -12 -51 -69 -79 -87 -38 -26 -91 -23 -132 8 -19 14 -52 35 -73 46 -46
24 -58 33 -102 76 -44 43 -47 98 -8 154 30 43 41 46 75 20 13 -10 43 -29 67
-42 23 -13 42 -27 42 -30 0 -9 47 -30 65 -30 22 0 45 29 45 56 0 32 -28 58
-124 114 -42 25 -76 51 -76 58 0 27 31 23 77 -11 27 -19 58 -37 69 -41 12 -4
29 -15 39 -26 26 -29 71 -26 91 5 26 40 8 63 -100 130 -53 32 -96 62 -96 65 0
3 6 14 13 24 13 18 15 18 43 0 16 -10 48 -33 71 -50 51 -39 105 -58 139 -50
19 5 24 13 24 40 0 35 -10 47 -59 75 -16 9 -54 33 -85 53 -52 35 -55 39 -45
62 11 24 12 24 44 7 18 -9 65 -39 104 -66 63 -43 75 -48 99 -39 21 7 28 16 30
45 3 33 -1 37 -72 87 -41 29 -78 52 -82 52 -4 0 -16 7 -25 16 -18 16 -18 18
-1 48 27 49 33 56 46 49 6 -3 45 -29 86 -57z"/>
</g>
</svg>

